<svg id="arp_logo" xmlns="http://www.w3.org/2000/svg" viewBox="0 0 50.62 52.01" width="300px" height="309px"><defs><style>.cls-1{fill:#fff;}</style></defs><title>arp_logo_white</title><path class="cls-1" d="M25.31,26.84l-.25-.13a20.35,20.35,0,0,1-11-17.45V6.13L14.48,6A31.49,31.49,0,0,0,25,.29L25.31,0l.34.29A31.4,31.4,0,0,0,36.14,6l.38.12V9.24a20.36,20.36,0,0,1-11,17.47ZM15.18,6.92V9.24A19.27,19.27,0,0,0,25.31,25.62,19.27,19.27,0,0,0,35.44,9.22V6.92A32.53,32.53,0,0,1,25.31,1.4,32.6,32.6,0,0,1,15.18,6.92Z"/><path class="cls-1" d="M24.29,10.63h2l.51,1.24H28.1L25.93,6.16H24.85l-2.21,5.72h1.18Zm1-3L26,9.55H24.67Z"/><polygon class="cls-1" points="23.62 12.59 22.36 12.59 22.36 12.6 23.62 12.6 23.62 12.59"/><path class="cls-1" d="M30.59,14.12a1.88,1.88,0,0,0-1.87-1.53h-3v5.72H26.8v-2h1.83a2.1,2.1,0,0,0,1.56-.58A2.28,2.28,0,0,0,30.59,14.12ZM29.22,15a.68.68,0,0,1-.51.24H26.8V13.73h1.88a.76.76,0,0,1,.51.19.63.63,0,0,1,.22.51A.81.81,0,0,1,29.22,15Z"/><path class="cls-1" d="M29.69,17.11a.69.69,0,1,0,.48.2A.66.66,0,0,0,29.69,17.11Z"/><path class="cls-1" d="M24,12.6H21.9A1.88,1.88,0,0,0,20,14.12a2.28,2.28,0,0,0,.4,1.59,1.84,1.84,0,0,0,.56.37l-.86,2.22h1.25l1.44-3.87h-1.2l-.21.55,0,0a.81.81,0,0,1-.19-.54.63.63,0,0,1,.22-.51.76.76,0,0,1,.47-.18h1.92V15.2h-.5l-.41,1.08h.91v2h1.13V12.6Z"/><line class="cls-1" x1="22.16" y1="16.28" x2="22.16" y2="16.28"/><rect class="cls-1" x="23.11" y="13.73" width="0.15"/><path class="cls-1" d="M22.05,13.73h0Z"/><path class="cls-1" d="M2.2,31.82H3.28l2.17,5.7H4.18l-.51-1.24h-2l-.4,1.24H0ZM2,35.19H3.33l-.67-1.92Z"/><path class="cls-1" d="M6.18,31.82H7.25L8.8,35.31l1.57-3.49h1.11v5.7H10.35V34.3l-1.57,3.3L7.25,34.37v3.16H6.18Z"/><path class="cls-1" d="M13.51,35.85a2.24,2.24,0,0,0,1.33.66,1.1,1.1,0,0,0,1-.24.54.54,0,0,0,.12-.62q-.14-.31-1.35-.56a1.93,1.93,0,0,1-1.53-1,1.66,1.66,0,0,1,.13-1.54,1.81,1.81,0,0,1,1.67-.84A3,3,0,0,1,17,32.6l-.81.81a2.21,2.21,0,0,0-1.35-.55q-.67,0-.75.45t.73.62a6.72,6.72,0,0,1,1.51.51,1.36,1.36,0,0,1,.78,1.2,1.67,1.67,0,0,1-.46,1.4,2.12,2.12,0,0,1-1.48.57,3.4,3.4,0,0,1-1.59-.27,2,2,0,0,1-.89-.72Z"/><path class="cls-1" d="M17.9,31.82h4.4v1.13H20.67v4.57H19.48V32.95H17.9Z"/><path class="cls-1" d="M23.32,31.82h3.89v1.13H24.45v1h1.64V35H24.45v1.41h2.94v1.07H23.32Z"/><path class="cls-1" d="M28.57,31.82h2.71a1.82,1.82,0,0,1,1.43.56,2,2,0,0,1,.45,1.51,1.66,1.66,0,0,1-1.06,1.44l1.08,2.19H31.84l-1-2H29.7v2H28.57Zm1.13,1.13v1.47h1.47a.88.88,0,0,0,.61-.21.7.7,0,0,0,.24-.55.63.63,0,0,0-.24-.52.9.9,0,0,0-.57-.19Z"/><path class="cls-1" d="M34.21,31.82h1.72a3.31,3.31,0,0,1,2,.57,2.53,2.53,0,0,1,.87,2.21,2.56,2.56,0,0,1-.9,2.28,3.08,3.08,0,0,1-1.76.65H34.21Zm1.13,1.13v3.46h.91a1.35,1.35,0,0,0,.89-.41,1.78,1.78,0,0,0,.47-1.34,1.59,1.59,0,0,0-.45-1.32,1.36,1.36,0,0,0-.81-.39Z"/><path class="cls-1" d="M41.34,31.82h1.08l2.17,5.7H43.31l-.51-1.24h-2l-.4,1.24H39.13Zm-.18,3.37h1.31l-.67-1.92Z"/><path class="cls-1" d="M45.31,31.82h1.07l1.56,3.49,1.57-3.49h1.11v5.7H49.49V34.3l-1.57,3.3-1.54-3.24v3.16H45.31Z"/><path class="cls-1" d="M10.36,39h2.71a1.82,1.82,0,0,1,1.43.56,2,2,0,0,1,.45,1.51,1.66,1.66,0,0,1-1.06,1.44L15,44.72H13.64l-1-2H11.49v2H10.36Zm1.13,1.13v1.47H13a.88.88,0,0,0,.61-.21.7.7,0,0,0,.24-.55.63.63,0,0,0-.24-.52.9.9,0,0,0-.57-.19Z"/><path class="cls-1" d="M16,39h3.89v1.13H17.12v1h1.64v1.07H17.12v1.41h2.94v1.07H16Z"/><path class="cls-1" d="M22.82,39H23.9l2.17,5.7H24.8l-.51-1.24h-2l-.4,1.24H20.62Zm-.18,3.38H24l-.67-1.92Z"/><path class="cls-1" d="M26.79,39h1.13v4.63h2.68v1.07H26.79Z"/><path class="cls-1" d="M30.2,39h4.4v1.13H33v4.57H31.78V40.15H30.2Z"/><path class="cls-1" d="M34.75,39h1.33l1.45,2.41L39,39h1.29l-2.13,3.5v2.2H36.93V42.47Z"/><path class="cls-1" d="M4.08,46.22H6.68a1.88,1.88,0,0,1,1.86,1.52,2.27,2.27,0,0,1-.4,1.58,2.1,2.1,0,0,1-1.55.57H5.21v2H4.08Zm1.13,1.13v1.47H6.68a.68.68,0,0,0,.51-.24A.81.81,0,0,0,7.37,48a.63.63,0,0,0-.22-.51.76.76,0,0,0-.51-.19Z"/><path class="cls-1" d="M10.58,46.22h1.08l2.17,5.7H12.56l-.51-1.24H10l-.4,1.24H8.38Zm-.18,3.38h1.31L11,47.69Z"/><path class="cls-1" d="M14.56,46.22h2.71a1.82,1.82,0,0,1,1.43.56,2,2,0,0,1,.45,1.51,1.66,1.66,0,0,1-1.06,1.44l1.08,2.19H17.83l-1-2H15.68v2H14.56Zm1.13,1.13v1.47h1.47a.88.88,0,0,0,.61-.21.7.7,0,0,0,.24-.55.63.63,0,0,0-.24-.52.9.9,0,0,0-.57-.19Z"/><path class="cls-1" d="M19.85,46.22h4.4v1.13H22.62v4.57H21.43V47.35H19.85Z"/><path class="cls-1" d="M25.27,46.22H26.4l2.45,3.44V46.22H30v5.7H28.85L26.4,48.18v3.75H25.27Z"/><path class="cls-1" d="M31.21,46.22h3.89v1.13H32.34v1H34v1.07H32.34v1.41h2.94v1.07H31.21Z"/><path class="cls-1" d="M36.46,46.22h2.71a1.82,1.82,0,0,1,1.43.56A2,2,0,0,1,41,48.29,1.66,1.66,0,0,1,40,49.73l1.08,2.19H39.74l-1-2H37.59v2H36.46Zm1.13,1.13v1.47h1.47a.88.88,0,0,0,.61-.21.7.7,0,0,0,.24-.55.63.63,0,0,0-.24-.52.9.9,0,0,0-.57-.19Z"/><path class="cls-1" d="M42.89,50.25a2.24,2.24,0,0,0,1.33.66,1.1,1.1,0,0,0,1-.24.54.54,0,0,0,.12-.62q-.14-.31-1.35-.56a1.93,1.93,0,0,1-1.53-1A1.66,1.66,0,0,1,42.57,47a1.81,1.81,0,0,1,1.67-.84,3,3,0,0,1,2.18.86l-.81.81a2.21,2.21,0,0,0-1.35-.55q-.68,0-.75.45t.73.62a6.72,6.72,0,0,1,1.51.51,1.36,1.36,0,0,1,.78,1.2,1.67,1.67,0,0,1-.46,1.4,2.12,2.12,0,0,1-1.48.57A3.4,3.4,0,0,1,43,51.74,2,2,0,0,1,42.1,51Z"/></svg>
