<svg id="arp_vignet" xmlns="http://www.w3.org/2000/svg" viewBox="0 0 22.42 26.84"><defs><style>.cls-1{fill:#fff;}</style></defs><title>arp_vignet_white</title><path class="cls-1" d="M11.21,26.84,11,26.71A20.35,20.35,0,0,1,0,9.25V6.13L.38,6A31.49,31.49,0,0,0,10.87.29L11.21,0l.34.29A31.4,31.4,0,0,0,22,6l.38.12V9.24a20.36,20.36,0,0,1-11,17.47ZM1.08,6.92V9.24A19.27,19.27,0,0,0,11.21,25.62,19.27,19.27,0,0,0,21.34,9.22V6.92A32.53,32.53,0,0,1,11.21,1.4,32.6,32.6,0,0,1,1.08,6.92Z"/><path class="cls-1" d="M10.19,10.63h2l.51,1.24H14L11.83,6.16H10.75L8.54,11.88H9.72Zm1-3,.67,1.92H10.57Z"/><polygon class="cls-1" points="9.52 12.59 8.26 12.59 8.26 12.6 9.52 12.6 9.52 12.59"/><path class="cls-1" d="M16.49,14.12a1.88,1.88,0,0,0-1.87-1.53h-3v5.72H12.7v-2h1.83a2.1,2.1,0,0,0,1.56-.58A2.28,2.28,0,0,0,16.49,14.12ZM15.12,15a.68.68,0,0,1-.51.24H12.7V13.73h1.88a.76.76,0,0,1,.51.19.63.63,0,0,1,.22.51A.81.81,0,0,1,15.12,15Z"/><path class="cls-1" d="M15.59,17.11a.69.69,0,1,0,.48.2A.66.66,0,0,0,15.59,17.11Z"/><path class="cls-1" d="M9.85,12.6H7.8a1.88,1.88,0,0,0-1.87,1.53,2.28,2.28,0,0,0,.4,1.59,1.84,1.84,0,0,0,.56.37L6,18.3H7.28l1.44-3.87H7.52L7.31,15l0,0a.81.81,0,0,1-.19-.54.63.63,0,0,1,.22-.51.76.76,0,0,1,.47-.18H9.71V15.2h-.5L8.8,16.28h.91v2h1.13V12.6Z"/><line class="cls-1" x1="8.06" y1="16.28" x2="8.06" y2="16.28"/><rect class="cls-1" x="9.01" y="13.73" width="0.15"/><path class="cls-1" d="M8,13.73H8Z"/></svg>