<svg id="arp_woordlogo" xmlns="http://www.w3.org/2000/svg" viewBox="0 0 50.62 20.28"><defs><style>.cls-1{fill:#fff;}</style></defs><title>arp_woordlogo_white</title><path class="cls-1" d="M2.2.09H3.28l2.17,5.7H4.18L3.67,4.55h-2l-.4,1.24H0ZM2,3.46H3.33L2.66,1.55Z"/><path class="cls-1" d="M6.18.09H7.25L8.8,3.58,10.37.09h1.11v5.7H10.35V2.57L8.79,5.87,7.25,2.63V5.79H6.18Z"/><path class="cls-1" d="M13.51,4.12a2.24,2.24,0,0,0,1.33.66,1.1,1.1,0,0,0,1-.24.54.54,0,0,0,.12-.62q-.14-.31-1.35-.56a1.93,1.93,0,0,1-1.53-1A1.66,1.66,0,0,1,13.19.84,1.81,1.81,0,0,1,14.86,0,3,3,0,0,1,17,.86l-.81.81a2.21,2.21,0,0,0-1.35-.55q-.67,0-.75.45t.73.62a6.72,6.72,0,0,1,1.51.51,1.36,1.36,0,0,1,.78,1.2,1.67,1.67,0,0,1-.46,1.4,2.12,2.12,0,0,1-1.48.57,3.4,3.4,0,0,1-1.59-.27,2,2,0,0,1-.89-.72Z"/><path class="cls-1" d="M17.9.09h4.4V1.22H20.67V5.79H19.48V1.22H17.9Z"/><path class="cls-1" d="M23.32.09h3.89V1.22H24.45v1h1.64V3.3H24.45V4.72h2.94V5.79H23.32Z"/><path class="cls-1" d="M28.57.09h2.71a1.82,1.82,0,0,1,1.43.56,2,2,0,0,1,.45,1.51A1.66,1.66,0,0,1,32.09,3.6l1.08,2.19H31.84l-1-2H29.7v2H28.57ZM29.7,1.22V2.68h1.47a.88.88,0,0,0,.61-.21A.7.7,0,0,0,32,1.92a.63.63,0,0,0-.24-.52.9.9,0,0,0-.57-.19Z"/><path class="cls-1" d="M34.21.09h1.72a3.31,3.31,0,0,1,2,.57,2.53,2.53,0,0,1,.87,2.21,2.56,2.56,0,0,1-.9,2.28,3.08,3.08,0,0,1-1.76.65H34.21Zm1.13,1.13V4.68h.91a1.35,1.35,0,0,0,.89-.41,1.78,1.78,0,0,0,.47-1.34,1.59,1.59,0,0,0-.45-1.32,1.36,1.36,0,0,0-.81-.39Z"/><path class="cls-1" d="M41.34.09h1.08l2.17,5.7H43.31L42.8,4.55h-2l-.4,1.24H39.13Zm-.18,3.38h1.31L41.8,1.55Z"/><path class="cls-1" d="M45.31.09h1.07l1.56,3.49L49.51.09h1.11v5.7H49.49V2.57l-1.57,3.3L46.39,2.63V5.79H45.31Z"/><path class="cls-1" d="M10.36,7.29h2.71a1.82,1.82,0,0,1,1.43.56,2,2,0,0,1,.45,1.51,1.66,1.66,0,0,1-1.06,1.44L15,13H13.64l-1-2H11.49v2H10.36Zm1.13,1.13V9.88H13a.88.88,0,0,0,.61-.21.7.7,0,0,0,.24-.55.63.63,0,0,0-.24-.52A.9.9,0,0,0,13,8.42Z"/><path class="cls-1" d="M16,7.29h3.89V8.42H17.12v1h1.64V10.5H17.12v1.41h2.94V13H16Z"/><path class="cls-1" d="M22.82,7.29H23.9L26.07,13H24.8l-.51-1.24h-2L21.87,13H20.62Zm-.18,3.38H24l-.67-1.92Z"/><path class="cls-1" d="M26.79,7.29h1.13v4.63h2.68V13H26.79Z"/><path class="cls-1" d="M30.2,7.29h4.4V8.42H33V13H31.78V8.42H30.2Z"/><path class="cls-1" d="M34.75,7.29h1.33L37.54,9.7,39,7.29h1.29l-2.13,3.5V13H36.93V10.73Z"/><path class="cls-1" d="M4.08,14.49H6.68A1.88,1.88,0,0,1,8.54,16a2.27,2.27,0,0,1-.4,1.58,2.1,2.1,0,0,1-1.55.57H5.21v2H4.08Zm1.13,1.13v1.47H6.68a.68.68,0,0,0,.51-.24.81.81,0,0,0,.19-.54.63.63,0,0,0-.22-.51.76.76,0,0,0-.51-.19Z"/><path class="cls-1" d="M10.58,14.49h1.08l2.17,5.7H12.56l-.51-1.24H10l-.4,1.24H8.38Zm-.18,3.38h1.31L11,16Z"/><path class="cls-1" d="M14.56,14.49h2.71A1.82,1.82,0,0,1,18.7,15a2,2,0,0,1,.45,1.51A1.66,1.66,0,0,1,18.08,18l1.08,2.19H17.83l-1-2H15.68v2H14.56Zm1.13,1.13v1.47h1.47a.88.88,0,0,0,.61-.21.7.7,0,0,0,.24-.55.63.63,0,0,0-.24-.52.9.9,0,0,0-.57-.19Z"/><path class="cls-1" d="M19.85,14.49h4.4v1.13H22.62v4.57H21.43V15.62H19.85Z"/><path class="cls-1" d="M25.27,14.49H26.4l2.45,3.44V14.49H30v5.7H28.85L26.4,16.44v3.75H25.27Z"/><path class="cls-1" d="M31.21,14.49h3.89v1.13H32.34v1H34V17.7H32.34v1.41h2.94v1.07H31.21Z"/><path class="cls-1" d="M36.46,14.49h2.71A1.82,1.82,0,0,1,40.6,15,2,2,0,0,1,41,16.55,1.66,1.66,0,0,1,40,18l1.08,2.19H39.74l-1-2H37.59v2H36.46Zm1.13,1.13v1.47h1.47a.88.88,0,0,0,.61-.21.7.7,0,0,0,.24-.55.63.63,0,0,0-.24-.52.9.9,0,0,0-.57-.19Z"/><path class="cls-1" d="M42.89,18.52a2.24,2.24,0,0,0,1.33.66,1.1,1.1,0,0,0,1-.24.54.54,0,0,0,.12-.62Q45.16,18,44,17.77a1.93,1.93,0,0,1-1.53-1,1.66,1.66,0,0,1,.13-1.54,1.81,1.81,0,0,1,1.67-.84,3,3,0,0,1,2.18.86l-.81.81a2.21,2.21,0,0,0-1.35-.55q-.68,0-.75.45t.73.62a6.72,6.72,0,0,1,1.51.51,1.36,1.36,0,0,1,.78,1.2,1.67,1.67,0,0,1-.46,1.4,2.12,2.12,0,0,1-1.48.57A3.4,3.4,0,0,1,43,20a2,2,0,0,1-.89-.72Z"/></svg>