<svg xmlns="http://www.w3.org/2000/svg" width="700px" viewBox="0 0 575.6 68.49">
    <defs>
        <style>
            .cls-1{fill:#1d3661;}.cls-10,.cls-2,.cls-3,.cls-4,.cls-5,.cls-6,.cls-7,.cls-8,.cls-9{fill:none;stroke-miterlimit:10;}.cls-2{stroke:#e2e4e8;}.cls-3{stroke:#e8ebef;}.cls-10,.cls-3,.cls-6,.cls-7,.cls-9{stroke-width:0.57px;}.cls-4,.cls-5,.cls-6{stroke:#a1a7af;}.cls-4,.cls-8{stroke-width:1.42px;}.cls-5{stroke-width:0.85px;}.cls-7{stroke:#d3dae2;}.cls-8,.cls-9{stroke:#ccd3db;}.cls-10{stroke:#c7d3e0;}
        </style>
    </defs>
    <title>arp_woordlogo_blue_buildings</title>
    <g id="arp_woordlogo" data-name="arp woordlogo">
        <path class="cls-1" d="M219.06.71h3.63L230,19.85h-4.27L224,15.69h-6.72l-1.34,4.16h-4.27ZM218.39,12h4.47L220.6,5.61Z"/>
        <path class="cls-1" d="M232.42.71H236l5.21,11.72L246.5.71h3.73V19.85h-3.79V9l-5.24,11.08L236,9.24V19.85h-3.59Z"/>
        <path class="cls-1" d="M257,14.24a7.52,7.52,0,0,0,4.47,2.22,3.69,3.69,0,0,0,3.36-.81,1.81,1.81,0,0,0,.4-2.08q-.47-1-4.53-1.88a6.48,6.48,0,0,1-5.14-3.36,5.57,5.57,0,0,1,.37-5.1A6.08,6.08,0,0,1,261.57.41a10.08,10.08,0,0,1,7.19,2.89L266,6a7.42,7.42,0,0,0-4.53-1.85q-2.25,0-2.52,1.51t2.45,2.08a22.57,22.57,0,0,1,5.07,1.71,4.57,4.57,0,0,1,2.62,4,5.61,5.61,0,0,1-1.54,4.7,7.12,7.12,0,0,1-5,1.91,11.42,11.42,0,0,1-5.34-.91,6.72,6.72,0,0,1-3-2.42Z"/>
        <path class="cls-1" d="M271.78.71h14.78V4.5h-5.47V19.85h-4V4.5h-5.31Z"/>
        <path class="cls-1" d="M290,.71h13.06V4.5h-9.27V7.86h5.51v3.63h-5.51v4.77h9.87v3.59H290Z"/>
        <path class="cls-1" d="M307.62.71h9.1a6.11,6.11,0,0,1,4.8,1.88A6.72,6.72,0,0,1,323,7.66a5.57,5.57,0,0,1-3.59,4.84l3.63,7.35H318.6l-3.36-6.72h-3.83v6.72h-3.79Zm3.79,3.79v4.9h4.94a3,3,0,0,0,2-.71,2.35,2.35,0,0,0,.74-1.85,2.12,2.12,0,0,0-.81-1.75,3,3,0,0,0-1.91-.64Z"/>
        <path class="cls-1" d="M326.56.71h5.78a11.12,11.12,0,0,1,6.72,1.91A8.5,8.5,0,0,1,342,10a8.6,8.6,0,0,1-3,7.66A10.34,10.34,0,0,1,333,19.88h-6.48Zm3.79,3.79V16.12h3.06a4.53,4.53,0,0,0,3-1.38,6,6,0,0,0,1.58-4.5,5.34,5.34,0,0,0-1.51-4.43,4.57,4.57,0,0,0-2.72-1.31Z"/>
        <path class="cls-1" d="M350.5.71h3.63l7.29,19.14h-4.3l-1.71-4.16h-6.72l-1.34,4.16h-4.27Zm-.6,11.35h4.4L352,5.61Z"/>
        <path class="cls-1" d="M363.84.71h3.59l5.24,11.72L377.94.71h3.73V19.85h-3.79V9L372.6,20.12,367.46,9.24V19.85h-3.63Z"/>
        <path class="cls-1" d="M246.46,24.89h9.1a6.11,6.11,0,0,1,4.8,1.88,6.72,6.72,0,0,1,1.51,5.07,5.57,5.57,0,0,1-3.56,4.84L262,44.07h-4.57l-3.36-6.72h-3.86v6.72h-3.79Zm3.79,3.79v4.9h5.07a3,3,0,0,0,2-.71,2.35,2.35,0,0,0,.81-1.85,2.12,2.12,0,0,0-.81-1.75,3,3,0,0,0-2-.6Z"/>
        <path class="cls-1" d="M265.4,24.89h13.06v3.79h-9.3V32h5.51v3.63h-5.51V40.4H279v3.66H265.4Z"/>
        <path class="cls-1" d="M288.31,24.89h3.63l7.29,19.18H295l-1.71-4.16h-6.72l-1.41,4.16h-4.2Zm-.6,11.35h4.57L290,29.79Z"/>
        <path class="cls-1" d="M301.64,24.89h3.79V40.44h9v3.63h-12.8Z"/>
        <path class="cls-1" d="M313.09,24.89h14.78v3.79H322.5V44.07h-4.1V28.68h-5.31Z"/>
        <path class="cls-1" d="M328.37,24.89h4.47l4.9,8.09,4.9-8.09H347l-7.15,11.75v7.42h-4.13V36.44Z"/>
        <path class="cls-1" d="M225.37,49.07h8.73a6.31,6.31,0,0,1,6.25,5.07A7.62,7.62,0,0,1,239,59.45a7.05,7.05,0,0,1-5.21,1.91h-4.63v6.72h-3.79Zm3.79,3.79V57.8h4.94a2.28,2.28,0,0,0,1.71-.81,2.72,2.72,0,0,0,.64-1.81,2.12,2.12,0,0,0-.74-1.71,2.55,2.55,0,0,0-1.71-.64Z"/>
        <path class="cls-1" d="M247.2,49.07h3.63l7.29,19.14h-4.27L252.14,64h-6.88l-1.34,4.16h-4.1Zm-.6,11.35H251l-2.38-6.28Z"/>
        <path class="cls-1" d="M260.57,49.07h9.1a6.11,6.11,0,0,1,4.8,1.71A6.72,6.72,0,0,1,276,55.85a5.57,5.57,0,0,1-3.59,5L276,68.21h-4.47l-3.36-6.72h-3.86v6.72h-3.76Zm3.79,3.79V57.8h4.94a3,3,0,0,0,2-.71,2.35,2.35,0,0,0,.81-1.85,2.12,2.12,0,0,0-.81-1.75,3,3,0,0,0-1.91-.64Z"/>
        <path class="cls-1" d="M278.33,49.07h14.78v3.79h-5.47V68.21h-4V52.86h-5.31Z"/>
        <path class="cls-1" d="M296.54,49.07h3.79l8.23,11.55V49.07h3.86V68.21h-3.86l-8.23-12.59V68.21h-3.79Z"/>
        <path class="cls-1" d="M316.48,49.07h13.06v3.79h-9.27v3.36h5.57v3.63h-5.57v4.74h9.87v3.59H316.48Z"/>
        <path class="cls-1" d="M334.12,49.07h9.1a6.11,6.11,0,0,1,4.8,1.71A6.72,6.72,0,0,1,349.36,56,5.57,5.57,0,0,1,346,60.86l3.63,7.35h-4.5l-3.36-6.72h-3.86v6.72h-3.79Zm3.79,3.79V57.8h4.94a3,3,0,0,0,2-.71,2.35,2.35,0,0,0,.81-1.85,2.12,2.12,0,0,0-.81-1.75,3,3,0,0,0-1.91-.64Z"/>
        <path class="cls-1" d="M355.71,62.6a7.52,7.52,0,0,0,4.47,2.22,3.69,3.69,0,0,0,3.36-.81,1.81,1.81,0,0,0,.4-2.08q-.6-1.07-4.5-1.85a6.48,6.48,0,0,1-5.14-3.36,5.57,5.57,0,0,1,.44-5.17,6.08,6.08,0,0,1,5.61-2.82,10.08,10.08,0,0,1,7.32,2.89l-2.72,2.72a7.42,7.42,0,0,0-4.53-1.85q-2.28,0-2.52,1.51t2.45,2.08a22.57,22.57,0,0,1,5.07,1.71,4.57,4.57,0,0,1,2.62,4,5.61,5.61,0,0,1-1.54,4.7,7.12,7.12,0,0,1-5,1.91,11.42,11.42,0,0,1-5.44-.87,6.72,6.72,0,0,1-3-2.42Z"/>
    </g>
    <g id="Layer_3" data-name="Layer 3">
    <path class="cls-2" d="M29,49.8c-.67-.67,0-9.72,0-9.72H.5v28"/>
    <polyline class="cls-3" points="41.97 49.8 41.97 20.15 84.25 20.15 84.25 33.48"/>
    <polyline class="cls-3" points="488.22 21.33 488.22 10.27 511.88 10.27 511.88 33.48"/>
    <polyline class="cls-3" points="511.88 16.05 528.5 16.05 528.5 33.48"/>
    <polyline class="cls-3" points="535.7 36.94 558.6 36.94 558.6 50.78"/>
</g>
    <g id="Layer_2" data-name="Layer 2">
    <polyline class="cls-4" points="198.9 68.08 198.9 0.71 162.78 0.71 162.78 68.21"/>
    <polyline class="cls-5" points="166.07 10.27 180.27 10.27 180.27 26.1 195.34 26.1"/>
    <polyline class="cls-6" points="186.34 68.21 186.34 47.93 175.7 47.93"/>
    <polyline class="cls-4" points="159.75 16.05 127.3 16.05 127.3 68.21"/>
    <line class="cls-7" x1="156.87" y1="27.46" x2="131.53" y2="27.46"/>
    <line class="cls-7" x1="156.87" y1="35.46" x2="131.53" y2="35.46"/>
    <polyline class="cls-6" points="139.53 68.08 139.53 47.93 148.47 47.93"/>
    <polyline class="cls-4" points="122.75 21.33 95.14 21.33 95.14 68.08"/>
    <polyline class="cls-6" points="106.66 33.48 115.29 33.48 115.29 42.11 106.66 42.11"/>
    <polyline class="cls-6" points="115.29 54.11 106.66 54.11 106.66 45.48 115.29 45.48"/>
    <polyline class="cls-6" points="106.66 57.48 115.29 57.48 115.29 66.11 106.66 66.11"/>
    <polyline class="cls-4" points="91.71 33.48 57.24 33.48 57.24 68.08"/>
    <polyline class="cls-8" points="53.42 50.78 18.04 50.78 18.04 68.21"/>
    <polyline class="cls-9" points="23.02 57.48 45.66 57.48 45.66 64.45"/>
    <polyline class="cls-10" points="62.2 40.08 84.25 40.08 84.25 54.11 73.22 54.11 73.22 66.11"/>
    <polyline class="cls-4" points="394.04 68.08 394.04 0.71 430.15 0.71 430.15 68.21"/>
    <polyline class="cls-5" points="426.87 10.27 412.67 10.27 412.67 26.1 397.6 26.1"/>
    <polyline class="cls-6" points="406.6 68.21 406.6 47.93 417.24 47.93"/>
    <polyline class="cls-4" points="433.19 16.05 465.64 16.05 465.64 68.21"/>
    <line class="cls-7" x1="436.07" y1="27.46" x2="461.41" y2="27.46"/>
    <line class="cls-7" x1="436.07" y1="35.46" x2="461.41" y2="35.46"/>
    <polyline class="cls-6" points="453.41 68.08 453.41 47.93 444.47 47.93"/>
    <polyline class="cls-4" points="470.19 21.33 497.8 21.33 497.8 68.08"/>
    <polyline class="cls-6" points="486.28 33.48 477.65 33.48 477.65 42.11 486.28 42.11"/>
    <polyline class="cls-6" points="477.65 54.11 486.28 54.11 486.28 45.48 477.65 45.48"/>
    <polyline class="cls-6" points="486.28 57.48 477.65 57.48 477.65 66.11 486.28 66.11"/>
    <polyline class="cls-4" points="501.23 33.48 535.7 33.48 535.7 68.08"/>
    <polyline class="cls-8" points="539.52 50.78 574.9 50.78 574.9 68.21"/>
    <polyline class="cls-9" points="569.91 57.48 547.28 57.48 547.28 64.45"/>
    <polyline class="cls-10" points="530.74 40.08 508.69 40.08 508.69 54.11 519.71 54.11 519.71 66.11"/>
</g></svg>