<?xml version="1.0" standalone="no"?>
<!DOCTYPE svg PUBLIC "-//W3C//DTD SVG 20010904//EN"
 "http://www.w3.org/TR/2001/REC-SVG-20010904/DTD/svg10.dtd">
<svg version="1.0" xmlns="http://www.w3.org/2000/svg"
 width="700.000000pt" height="700.000000pt" viewBox="0 0 700.000000 700.000000"
 preserveAspectRatio="xMidYMid meet">
<metadata>
Created by potrace 1.11, written by Peter Selinger 2001-2013
</metadata>
<g transform="translate(0.000000,700.000000) scale(0.100000,-0.100000)"
fill="#000000" stroke="none">
<path d="M3325 6853 c-641 -512 -1346 -920 -2125 -1231 -96 -38 -191 -74 -210
-80 -19 -6 -118 -39 -220 -75 l-185 -64 0 -454 c0 -392 4 -541 19 -709 5 -52
25 -208 32 -245 2 -11 7 -40 10 -65 7 -53 11 -76 18 -98 3 -9 7 -34 10 -54 21
-140 92 -409 185 -693 117 -363 347 -839 575 -1190 231 -356 445 -624 736
-916 103 -104 145 -143 286 -269 201 -180 518 -406 792 -564 264 -151 256
-148 283 -127 13 10 60 37 104 61 44 23 92 51 107 61 14 11 29 19 32 19 9 0
241 146 316 199 74 52 245 178 275 202 210 173 291 245 446 399 155 154 252
261 369 405 35 44 67 82 70 85 14 11 181 242 247 340 373 558 648 1186 789
1800 16 69 18 77 39 185 8 39 16 79 18 90 11 52 39 250 51 365 17 159 21 296
21 709 l0 464 -227 78 c-190 65 -312 110 -443 164 -11 5 -22 9 -25 10 -3 1
-16 6 -30 12 -14 6 -47 20 -75 31 -27 11 -94 41 -148 66 -54 25 -100 46 -104
46 -6 0 -377 186 -433 217 -19 11 -62 35 -95 53 -33 18 -89 50 -124 72 -34 21
-65 38 -67 38 -2 0 -48 27 -101 60 -371 229 -567 370 -1018 731 -19 15 -28 10
-200 -128z m306 -315 c145 -112 469 -343 559 -398 36 -22 103 -64 150 -94 91
-59 364 -217 470 -274 91 -48 397 -202 403 -202 2 0 57 -25 121 -55 64 -30
119 -55 122 -55 3 0 20 -6 37 -14 83 -38 286 -119 417 -165 80 -29 165 -60
190 -70 l45 -17 0 -345 c0 -308 -7 -506 -20 -594 -2 -16 -7 -52 -10 -80 -3
-27 -10 -77 -15 -110 -5 -33 -11 -78 -15 -100 -3 -22 -12 -76 -21 -120 -8 -44
-18 -91 -20 -105 -3 -14 -10 -43 -16 -65 -5 -22 -11 -47 -13 -55 -20 -102
-124 -454 -146 -492 -5 -10 -9 -22 -9 -28 0 -18 -109 -286 -172 -425 -253
-552 -608 -1064 -1038 -1495 -80 -80 -166 -163 -190 -185 -44 -39 -195 -168
-215 -183 -5 -4 -50 -40 -100 -78 -153 -120 -347 -249 -562 -373 l-73 -42 -49
25 c-166 85 -531 330 -696 467 -192 161 -232 197 -389 354 -259 257 -449 489
-653 795 -313 469 -542 970 -687 1505 -43 157 -51 190 -62 250 -2 17 -9 44
-14 60 -4 17 -12 53 -16 80 -4 28 -8 55 -10 60 -3 13 -16 94 -19 122 -2 12 -6
34 -9 50 -5 26 -7 46 -20 168 -15 136 -20 280 -20 590 l-1 350 175 63 c392
141 794 319 1155 512 388 207 823 488 1165 754 74 58 139 105 143 105 4 1 62
-41 128 -91z"/>
<path d="M3376 5365 c-7 -16 -54 -138 -105 -270 -51 -132 -96 -249 -101 -260
-5 -11 -30 -74 -55 -140 -26 -66 -58 -149 -72 -185 -66 -169 -178 -461 -198
-515 -13 -33 -26 -68 -30 -77 -7 -17 4 -18 147 -18 l153 0 24 63 c13 34 37 98
54 142 16 44 34 90 39 101 10 21 14 21 270 20 l259 -1 66 -160 66 -160 169 0
c92 0 168 1 168 4 0 5 -257 685 -275 726 -7 17 -29 75 -50 130 -77 207 -116
311 -125 330 -5 11 -30 76 -55 145 -26 69 -51 131 -55 139 -6 12 -36 15 -145
15 l-137 1 -12 -30z m241 -695 c24 -62 53 -146 53 -152 0 -5 -75 -8 -166 -8
-129 0 -165 3 -161 13 2 6 34 106 71 220 37 115 72 221 78 235 9 25 15 12 65
-133 30 -88 57 -167 60 -175z"/>
<path d="M2565 3709 c-189 -24 -349 -149 -415 -327 -39 -103 -30 -238 26 -377
32 -79 93 -147 162 -180 23 -11 40 -24 38 -30 -26 -60 -226 -561 -226 -565 0
-8 322 -2 329 7 4 4 17 33 29 63 44 113 342 922 342 929 0 4 -68 7 -151 7
-170 -1 -156 6 -190 -89 l-21 -59 -21 34 c-16 25 -21 50 -22 104 0 62 3 75 27
106 15 19 46 45 69 56 39 19 60 21 308 22 l266 1 0 -188 -1 -187 -65 -1 -66 0
-51 -135 c-29 -75 -52 -138 -52 -141 0 -3 50 -5 111 -5 63 1 114 -3 117 -9 3
-5 6 -122 7 -260 l0 -250 148 -2 147 -2 0 739 c0 407 -3 740 -7 741 -36 5
-800 3 -838 -2z"/>
<path d="M3614 3706 c-2 -6 -2 -342 -1 -746 l2 -735 138 0 c86 0 137 3 138 10
1 5 2 123 3 260 l1 250 285 1 c301 1 353 7 454 54 47 21 133 83 153 109 52 70
94 206 98 315 7 202 -124 386 -332 464 l-68 25 -433 2 c-308 1 -435 -1 -438
-9z m828 -296 c82 -23 130 -90 130 -180 0 -98 -52 -173 -135 -194 -26 -7 -142
-11 -293 -11 l-249 0 -1 190 c0 105 1 193 3 198 6 11 503 8 545 -3z"/>
<path d="M4594 2526 c-104 -46 -139 -217 -60 -300 76 -81 197 -44 256 79 29
59 26 126 -6 165 -49 57 -131 82 -190 56z"/>
</g>
</svg>
